<?xml version="1.0" encoding="UTF-8"?>
<svg width="24px" height="16px" viewBox="0 0 24 16" version="1.1" xmlns="http://www.w3.org/2000/svg" xmlns:xlink="http://www.w3.org/1999/xlink">
    <!-- Generator: Sketch 49.1 (51147) - http://www.bohemiancoding.com/sketch -->
    <title>if_mail_115714</title>
    <desc>Created with Sketch.</desc>
    <defs></defs>
    <g id="Layout" stroke="none" stroke-width="1" fill="none" fill-rule="evenodd">
        <g id="Final---industrial" transform="translate(-972.000000, -3129.000000)" fill="#d0d0d0" fill-rule="nonzero">
            <g id="Footer" transform="translate(0.000000, 3039.000000)">
                <g id="Main-footer">
                    <g id="Right" transform="translate(972.000000, 33.000000)">
                        <g id="if_mail_115714" transform="translate(0.000000, 57.000000)">
                            <path d="M21,0 L3,0 C1.34325,0 0,1.36533333 0,3.04761905 L0,12.952381 C0,14.6354286 1.34325,16 3,16 L21,16 C22.65675,16 24,14.6354286 24,12.952381 L24,3.04761905 C24,1.36533333 22.65675,0 21,0 Z M1.5,3.80952381 L6.75,8 L1.5,12.1904762 L1.5,3.80952381 Z M22.5,12.9281935 C22.5,13.7826878 21.8265,14.4761905 21,14.4761905 L3,14.4761905 C2.17275,14.4761905 1.5,13.7826878 1.5,12.9281935 L7.374,8.38095238 L10.65,10.9173454 C11.04975,11.2253968 11.5245,11.3817445 12,11.3817445 C12.47475,11.3817445 12.9495,11.2261708 13.34925,10.9173454 L16.626,8.38095238 L22.5,12.9281935 Z M22.5,12.1904762 L17.25,8 L22.5,3.80952381 L22.5,12.1904762 Z M12.89925,10.3619555 C12.6375,10.5615413 12.327,10.6666667 12,10.6666667 C11.673,10.6666667 11.36175,10.5607796 11.1,10.3619555 L7.99875,7.99892081 L7.374,7.52280969 L1.5,3.0481269 L1.5,3.04736512 C1.5,2.20712421 2.17275,1.52380952 3,1.52380952 L21,1.52380952 C21.8265,1.52380952 22.5,2.20712421 22.5,3.04736512 L12.89925,10.3619555 Z" id="mail"></path>
                        </g>
                    </g>
                </g>
            </g>
        </g>
    </g>
</svg>
