<?xml version="1.0" encoding="utf-8"?>
<!-- Generator: Adobe Illustrator 20.1.0, SVG Export Plug-In . SVG Version: 6.00 Build 0)  -->
<svg version="1.1" id="Layer_1" xmlns="http://www.w3.org/2000/svg" xmlns:xlink="http://www.w3.org/1999/xlink" x="0px" y="0px"
	 viewBox="0 0 55 55" style="enable-background:new 0 0 55 55;" xml:space="preserve">
<style type="text/css">
	.st0{fill:#FFFFFF;}
</style>
<path class="st0" d="M43.2,17.8c-1.2,0.5-2.4,0.9-3.7,1c1.3-0.8,2.3-2.1,2.8-3.6c-1.2,0.7-2.6,1.3-4.1,1.6c-1.2-1.2-2.8-2-4.7-2
	c-3.6,0-6.4,2.9-6.4,6.4c0,0.5,0.1,1,0.2,1.5c-5.3-0.3-10.1-2.8-13.3-6.7c-0.6,0.9-0.9,2.1-0.9,3.2c0,2.2,1.1,4.2,2.9,5.4
	c-1.1,0-2-0.3-2.9-0.8c0,0,0,0.1,0,0.1c0,3.1,2.2,5.7,5.2,6.3c-0.5,0.1-1.1,0.2-1.7,0.2c-0.4,0-0.8,0-1.2-0.1c0.8,2.6,3.2,4.4,6,4.5
	c-2.2,1.7-5,2.8-8,2.8c-0.5,0-1,0-1.5-0.1c2.8,1.8,6.2,2.9,9.9,2.9c11.8,0,18.3-9.8,18.3-18.3c0-0.3,0-0.6,0-0.8
	C41.2,20.2,42.3,19.1,43.2,17.8z"/>
</svg>
