<?xml version="1.0" encoding="utf-8"?>
<!-- Generator: Adobe Illustrator 20.1.0, SVG Export Plug-In . SVG Version: 6.00 Build 0)  -->
<svg version="1.1" id="Layer_1" xmlns="http://www.w3.org/2000/svg" xmlns:xlink="http://www.w3.org/1999/xlink" x="0px" y="0px"
	 viewBox="0 0 55 55" style="enable-background:new 0 0 55 55;" xml:space="preserve">
<style type="text/css">
	.st0{fill-rule:evenodd;clip-rule:evenodd;fill:#FFFFFF;}
</style>
<g>
	<path class="st0" d="M15.9,11.9h23.2c2.2,0,4,1.6,4,4v23.2c0,2.4-1.8,4-4,4H15.9c-2.2,0-4-1.6-4-4V15.9
		C11.9,13.5,13.7,11.9,15.9,11.9L15.9,11.9z M34.6,15.3c-0.8,0-1.4,0.6-1.4,1.4v3.4c0,0.8,0.6,1.4,1.4,1.4h3.5
		c0.8,0,1.4-0.6,1.4-1.4v-3.4c0-0.8-0.6-1.4-1.4-1.4H34.6z M39.6,25.1h-2.8c0.3,0.8,0.4,1.7,0.4,2.7c0,5.2-4.3,9.4-9.7,9.4
		c-5.4,0-9.7-4.2-9.7-9.4c0-0.9,0.1-1.8,0.4-2.7h-2.9v13.2c0,0.7,0.6,1.2,1.2,1.2h21.8c0.7,0,1.2-0.6,1.2-1.2V25.1z M27.5,21.4
		c-3.5,0-6.3,2.7-6.3,6.1s2.8,6.1,6.3,6.1c3.5,0,6.3-2.7,6.3-6.1S31,21.4,27.5,21.4L27.5,21.4z M27.5,21.4"/>
</g>
</svg>
