<?xml version="1.0" encoding="utf-8"?>
<!-- Generator: Adobe Illustrator 20.1.0, SVG Export Plug-In . SVG Version: 6.00 Build 0)  -->
<svg version="1.1" id="Layer_1" xmlns="http://www.w3.org/2000/svg" xmlns:xlink="http://www.w3.org/1999/xlink" x="0px" y="0px"
	 viewBox="0 0 55 55" style="enable-background:new 0 0 55 55;" xml:space="preserve">
<style type="text/css">
	.st0{fill:#FFFFFF;}
</style>
<g>
	<path class="st0" d="M45.6,31.4v13.4h-7.7V32.3c0-3.1-1.1-5.3-3.9-5.3c-2.1,0-3.4,1.4-4,2.8c-0.2,0.5-0.3,1.2-0.3,1.9v13h-7.7
		c0,0,0.1-21.1,0-23.3h7.7v3.3c0,0,0,0.1-0.1,0.1h0.1v-0.1c1-1.6,2.9-3.8,7-3.8C41.7,20.9,45.6,24.2,45.6,31.4L45.6,31.4z
		 M13.8,10.2c-2.7,0-4.4,1.7-4.4,4c0,2.2,1.7,4,4.3,4h0.1c2.7,0,4.4-1.8,4.4-4C18.1,12,16.5,10.2,13.8,10.2L13.8,10.2z M9.9,44.8
		h7.7V21.5H9.9V44.8z M9.9,44.8"/>
</g>
</svg>
