<?xml version="1.0" encoding="UTF-8"?>
<svg width="134px" height="36px" viewBox="0 0 134 36" version="1.1" xmlns="http://www.w3.org/2000/svg" xmlns:xlink="http://www.w3.org/1999/xlink">
    <!-- Generator: Sketch 49.3 (51167) - http://www.bohemiancoding.com/sketch -->
    <title>edozo-logo</title>
    <desc>Created with Sketch.</desc>
    <defs></defs>
    <g id="edozo-logo" stroke="none" stroke-width="1" fill="none" fill-rule="evenodd">
        <g fill="#31424B">
            <polygon id="z" points="106.207407 10.5753031 106.207407 9.92592593 85.7833457 9.92592593 85.7833457 14.3708521 98.2513254 14.3708521 84.3703704 34.0909058 84.3703704 34.7407407 105.561124 34.7407407 105.561124 30.2960435 92.2685286 30.2960435"></polygon>
            <path d="M72.0433916,30.92973 C66.9857423,30.92973 63.0043421,27.1893413 63.0043421,22.2137121 C63.0043421,17.2378503 66.9857423,13.4976941 72.0433916,13.4976941 C77.141083,13.4976941 81.0447269,17.2378503 81.0447269,22.2137121 C81.0447269,27.1893413 77.141083,30.92973 72.0433916,30.92973 M72.0534021,9.06115933 C64.4218807,9.06115933 58.4134632,14.7057122 58.4134632,22.2137121 C58.4134632,29.7205486 64.4218807,35.3655668 72.0534021,35.3655668 C79.7452195,35.3655668 85.6344418,29.7205486 85.6344418,22.2137121 C85.6344418,14.7057122 79.7452195,9.06115933 72.0534021,9.06115933" id="o"></path>
            <path d="M42.6020991,30.92973 C37.5444498,30.92973 33.5630497,27.1893413 33.5630497,22.2137121 C33.5630497,17.2378503 37.5444498,13.4976941 42.6020991,13.4976941 C47.6997906,13.4976941 51.6034345,17.2378503 51.6034345,22.2137121 C51.6034345,27.1893413 47.6997906,30.92973 42.6020991,30.92973 Z M51.673741,12.285488 C49.2954236,10.264524 46.1495541,9.06115933 42.6121097,9.06115933 C34.9805883,9.06115933 28.9721708,14.7057122 28.9721708,22.2137121 C28.9721708,29.7205486 34.9805883,35.3655668 42.6121097,35.3655668 C46.1495541,35.3655668 49.2954236,34.1615041 51.673741,32.1414708 L51.673741,34.8253091 L56.1931493,34.8253091 L56.1931493,0.204609225 L51.673741,0.204609225 L51.673741,12.285488 Z" id="d"></path>
            <path d="M119.921393,30.92973 C114.863744,30.92973 110.882344,27.1893413 110.882344,22.2137121 C110.882344,17.2378503 114.863744,13.4976941 119.921393,13.4976941 C125.019084,13.4976941 128.922728,17.2378503 128.922728,22.2137121 C128.922728,27.1893413 125.019084,30.92973 119.921393,30.92973 M119.931404,9.06115933 C112.301279,9.06115933 106.291465,14.7057122 106.291465,22.2137121 C106.291465,29.7205486 112.301279,35.3655668 119.931404,35.3655668 C127.623221,35.3655668 133.512443,29.7205486 133.512443,22.2137121 C133.512443,14.7057122 127.623221,9.06115933 119.931404,9.06115933" id="o"></path>
            <path d="M4.8782046,19.9984927 C5.86412611,16.1710856 9.35757078,13.4977174 13.6299749,13.4977174 C17.9361355,13.4977174 21.3795275,16.1710856 22.3479888,19.9984927 L4.8782046,19.9984927 Z M27.0291953,19.9984927 C25.9943851,13.6261508 20.5516794,9.0611826 13.6399855,9.0611826 C6.00962811,9.0611826 4.6560638e-05,14.7055028 4.6560638e-05,22.2137354 C4.6560638e-05,29.7205719 6.00962811,35.3655901 13.6399855,35.3655901 C18.8645547,35.3655901 23.2510324,32.7573693 25.5313396,28.7345202 L21.513855,26.5318416 C20.0022638,29.2003237 17.093388,30.9297533 13.6299749,30.9297533 C9.15177276,30.9297533 5.52167262,27.9930037 4.74899883,23.8654535 L22.4757977,23.8654535 L22.4757977,23.8661515 L27.1118405,23.8654535 L27.1132373,23.8728989 C27.1772582,23.3293838 27.2210252,22.7791213 27.2210252,22.2137354 C27.2210252,21.6469534 27.1772582,21.0948296 27.1118405,20.5501511 C27.0892586,20.3651792 27.0592269,20.1816033 27.0291953,19.9984927 Z" id="e"></path>
        </g>
    </g>
</svg>